SplineFontDB: 1.0
FontName: FranklinGothic
FullName: Franklin Gothic
FamilyName: FranklinGothic
Weight: Medium
Copyright: Created by Raph Levien with FontForge 1.0 (http://fontforge.sf.net)
Comments: 2004-7-11: Created.
Version: 001.000
ItalicAngle: 0
UnderlinePosition: -100
UnderlineWidth: 50
Ascent: 800
Descent: 200
NeedsXUIDChange: 1
XUID: [1021 638 402960731 16602909]
OS2WinAscent: 0
OS2WinAOffset: 1
OS2WinDescent: 0
OS2WinDOffset: 1
HheadAscent: 0
HheadAOffset: 1
HheadDescent: 0
HheadDOffset: 1
ScriptLang: 1
 1 latn 1 dflt 
Encoding: iso8859_1
UnicodeInterp: none
DisplaySize: -96
AntiAlias: 1
FitToEm: 1
WinInfo: 36 4 4
BeginChars: 256 31
StartChar: period
Encoding: 46 46 1
Width: 322
Flags: W
HStem: 0 21G<74 86 82 246 235 254.5>
Fore
74 208 m 0
 90.1245 208 228 210 240 210 c 0
 252 210 266 202 266 190 c 0
 266 176 269 41 269 27 c 0
 269 10 263 0 246 0 c 0
 224 0 90 0 82 0 c 0
 66 0 48 2 48 14 c 0
 48 26 48 159.834 48 172 c 4
 48 188 53 208 74 208 c 0
EndSplineSet
EndChar
StartChar: zero
Encoding: 48 48 65535
Width: 722
Flags: HWO
Fore
364 626 m 4
 295 626 257 574.102 257 397 c 4
 257 198 291 147 361 147 c 4
 424 147 468 183 468 383 c 4
 468 574 430 626 364 626 c 4
357 780 m 4
 549 780 692 623 692 397 c 4
 692 184 588 -8 363 -8 c 4
 154 -8 28 150 28 388 c 4
 28 612 153 780 357 780 c 4
EndSplineSet
EndChar
StartChar: three
Encoding: 51 51 65535
Width: 706
Flags: HW
Fore
351 780 m 0
 559.002 780 645 676 645 583 c 0
 645 490 572 443 526 421 c 0
 510.219 413.453 508.994 411.987 522 406 c 0
 585 377 674 349 674 215 c 0
 674 69 535 -9 348 -9 c 0
 171 -9 91 60 26 125 c 0
 17 134 11 148 20 158 c 0
 29 168 132 236 141 244 c 0
 150 252 160.568 249.519 166 243 c 0
 206 195 256.265 147 339 147 c 0
 407 147 446 184 446 221 c 0
 446 274 392 307 370 309 c 0
 348 311 255.142 313 241 313 c 0
 230 313 226 314 226 323 c 0
 226 336.038 226 446 226 455 c 0
 226 464 228 475 238 475 c 0
 254.125 475 333.431 477.22 345 479 c 0
 371 483 421 514 421 554 c 0
 421 584 395.011 624 349 624 c 0
 269 624 220 592 184 554 c 0
 177.659 547.307 164 540 155 551 c 0
 147.836 559.756 58 632 53 639 c 0
 48 646 45.0879 663.624 53 671 c 0
 112 726 178 780 351 780 c 0
EndSplineSet
EndChar
StartChar: A
Encoding: 65 65 65535
Width: 806
Flags: HW
Fore
378 526 m 4
 376 518 318 342 317 338 c 4
 316 334 313.991 319.91 324 319 c 4
 346 317 411 320 435 317 c 4
 442.017 316.123 456 320 452 329 c 4
 448 338 395 509 391 521 c 4
 387 533 380 534 378 526 c 4
296 765 m 4
 312 765 482 767 496 767 c 4
 506 767 517 763 525 751 c 4
 533 739 768 56 776 36 c 4
 782.828 18.9302 783 0 769 0 c 4
 755 0 589 0 578 0 c 4
 567 0 545 0 542 10 c 4
 538.724 20.9209 507 139 505 147 c 4
 503 155 503 155 490 155 c 4
 477 155 301.036 150 287 150 c 4
 275 150 266 151 263 143 c 4
 260 135 230 24 227 17 c 4
 224 10 220 0 207 0 c 4
 194 0 56 0 44 0 c 4
 32 0 22 1 24 17 c 4
 26 33 267 741 271 750 c 4
 275 759 283 765 296 765 c 4
EndSplineSet
EndChar
StartChar: a
Encoding: 97 97 1
Width: 639
Flags: W
HStem: 0 21G<397.5 406.25> 427 122<315 339>
VStem: 44 202<132 161>
Fore
370 242 m 4
 344 241 246 234 246 161 c 4
 246 127 267.984 108 300 108 c 4
 334 108 372.944 125.421 380.5 136 c 4
 383 139.5 383.254 143.04 384 150 c 4
 385.5 164 389 228 384 233 c 4
 379 238 392.188 242.853 370 242 c 4
71 396 m 4
 66 398 66.9102 404.288 69 410 c 4
 84 451 110.968 547.858 337 549 c 4
 535 550 575 451 576 417 c 4
 576.756 391.301 580 96 581 83 c 4
 581.661 74.4033 585 54.5 588 42 c 4
 589.632 35.1992 595.5 25.7266 595.5 22 c 4
 595.5 11 591.303 3.35449 583.5 3 c 4
 572.5 2.5 412.5 0 400 0 c 4
 395 0 393.752 3.55176 393 9 c 4
 391 23.5 390.5 36.5 389.5 42.5 c 4
 388.5 48.5 377.57 45.6934 374 43 c 4
 345.5 21.5 301 -11 213 -11 c 4
 142 -11 44 36 44 132 c 4
 44 244 115 297 219 323 c 4
 292.064 341.266 344.941 339 379 339 c 4
 388 339 389 340 389 347 c 4
 389 361.036 392 386 385 395 c 4
 378 404 370.012 427 328 427 c 4
 282 427 252 409 241 372 c 4
 239.267 366.169 237 364 234 364 c 4
 231 364 76 394 71 396 c 4
EndSplineSet
EndChar
StartChar: b
Encoding: 98 98 2
Width: 665
Flags: W
HStem: 0 21G<68.999 76.999 72.999 179.999 175.999 183.999> 534 20G<378.485 462.499> 746 20G<69.4712 86.999>
Fore
338.999 431 m 4
 286.961 431 280.985 414.493 273.999 411 c 4
 265.999 407 260.999 399 260.999 391 c 4
 260.999 383 257.999 187.071 257.999 180 c 4
 257.999 157 281.999 107 331.999 107 c 4
 384.999 107 412.999 152 412.999 282 c 4
 412.999 390 386.999 431 338.999 431 c 4
73.999 766 m 4
 99.999 766 196.894 770 215.999 770 c 4
 235.999 770 255.999 763 256.999 746 c 4
 257.999 729 251.999 514 254.999 504 c 4
 257.999 494 264.48 490.481 270.999 497 c 4
 293.999 520 342.971 554 413.999 554 c 4
 510.999 554 620.999 478.012 620.999 306 c 4
 620.999 245.881 621.773 158.965 578.939 98 c 4
 540.999 44 488.671 -4 387.999 -4 c 4
 280.999 -4 243.999 54 225.999 76 c 4
 220.894 82.2402 216.405 80.8115 212.999 74 c 4
 204.999 58 199.999 32 193.999 15 c 4
 192.207 9.92188 187.999 0 179.999 0 c 4
 171.999 0 80.999 0 72.999 0 c 4
 64.999 0 49.999 4 49.999 19 c 4
 49.999 31.042 50.999 59 51.999 83 c 4
 52.999 107 53.999 734 54.999 747 c 4
 55.999 760 64.9434 766 73.999 766 c 4
EndSplineSet
EndChar
StartChar: c
Encoding: 99 99 3
Width: 619
Flags: W
HStem: -5 125<335 351> 436 126<326 351>
VStem: 44 210<266 300>
Fore
326 562 m 4
 447.037 562 541 507 582 392 c 4
 587.719 375.96 578 364 568 363 c 4
 548.451 361.045 424 353 416 353 c 4
 408 353 399 357.938 399 366 c 4
 399 415 375 436 339 436 c 4
 278 436 254 370 254 296 c 4
 254 246.495 256.868 201.726 270 173 c 4
 286 138 323 120 349 120 c 4
 411 120 436 174 453 204 c 4
 458.938 214.477 457 212 463 211 c 4
 469 210 570 191 577 190 c 4
 584 189 587.025 177.99 581 163 c 4
 540 61 460 -5 335 -5 c 4
 198 -5 44 87 44 278 c 4
 44 452 186 562 326 562 c 4
EndSplineSet
EndChar
StartChar: d
Encoding: 100 100 4
Width: 664
Flags: W
HStem: 0 21G<429.5 440.5 435 586 579 597> 432 118<269 342> 746 20G<574.5 591.5>
VStem: 44 213<230 292> 414 200<38 53 151.46 280 495 743>
Fore
342 432 m 4
 282 432 257 365 257 292 c 4
 257 196 258 112 336 112 c 4
 370 112 388 128 405 146 c 4
 410.536 151.861 412 147 412 163 c 4
 412 179 414 368 413 377 c 4
 412 386 414.221 389.284 406 399 c 4
 395 412 375.061 432 342 432 c 4
583 766 m 4
 600 766 612 756 612 741 c 4
 612 726.857 614 67 614 46 c 4
 614 19 608 0 586 0 c 4
 572 0 446 0 435 0 c 4
 424 0 417 6 416 14 c 4
 415 22 414 44 414 49 c 4
 414 54 410.123 56.123 406 52 c 4
 390 36 333 -9 253 -9 c 4
 188 -9 44 39 44 253 c 4
 44 493 181 550 269 550 c 4
 337 550 372 520 405 494 c 4
 410.664 489.537 413 488 414 496 c 4
 415 504 414 732 414 740 c 4
 414 753 421 765 430 765 c 4
 456 765 490 761 514 761 c 4
 538 761 566 766 583 766 c 4
EndSplineSet
EndChar
StartChar: e
Encoding: 101 101 5
Width: 660
Flags: W
HStem: -13 133<346 367> 237 102<257 347> 438 117<330 355>
Fore
410.892 339 m 5
 412.892 380 398.892 438 343.892 438 c 4
 283.892 438 257.892 392 257.892 341 c 13
 410.892 339 l 5
345.892 555 m 4
 502.892 555 603.892 435 615.892 257 c 4
 616.9 242.034 610.892 236 597.892 235 c 4
 564.988 232.469 280.892 237 270.892 237 c 4
 257.392 237 255.892 234.5 255.892 221.5 c 4
 255.892 159.5 293.392 120 365.892 120 c 4
 421.892 120 460.118 163.801 475.892 182 c 4
 482.392 189.5 486.892 186.5 494.392 183.5 c 4
 502.048 180.438 595.892 143 598.892 143 c 4
 601.892 143 608.892 137 601.892 127 c 4
 590.279 110.412 508.892 -13 353.892 -13 c 4
 178.892 -13 43.8916 95 43.8916 261 c 4
 43.8916 436 182.892 555 345.892 555 c 4
EndSplineSet
EndChar
StartChar: f
Encoding: 102 102 6
Width: 454
Flags: W
HStem: 0 21G<142.5 151.5 147 310 305 315> 407 128<39 46> 411 122<110 111> 632 132<365 378.529 394 407>
VStem: 117 207<13 387>
Fore
240 761 m 4xb8
 300.079 763.557 381.834 764 394 764 c 4
 410 764 424 752 424 735 c 4
 424 723 425 659 425 652 c 4
 425 639 418 632 407 632 c 4
 398 632 376 636 365 636 c 4
 346 636 317 609 317 592 c 4
 317 581.95 316 554 316 550 c 4
 316 546 316 538 324 538 c 4
 333.055 538 379.917 539 386 539 c 4
 398 539 418 536 418 526 c 4
 418 516 421 430 421 423 c 4
 421 416 419 406 406 405 c 4
 393 404 362 408 341 408 c 4
 333 408 322 408 322 401 c 4
 322 394 324 41.0499 324 31 c 4
 324 11 320 0 310 0 c 4
 300 0 156 0 147 0 c 4
 138 0 117 2.22949 117 13 c 4
 117 31 122 77 122 387 c 4
 122 394.28 122 411 111 411 c 4xb8
 104.917 411 53 407 46 407 c 4
 34 407 25 415 25 425 c 4
 25 432 28 510 28 521 c 4
 28 531.05 34 535 41 535 c 4xd8
 48 535 106 533 110 533 c 4
 114 533 121.226 533.004 121 540 c 4
 119.57 584.339 122 620 122 653 c 4
 122 713 193 759 240 761 c 4xb8
EndSplineSet
EndChar
StartChar: g
Encoding: 103 103 7
Width: 699
Flags: W
HStem: -163 97<297 379> 220 92<313 351> 460 97<611 636>
VStem: 26 159<-60 -19> 66 179<381 397> 413 180<380 397> 483 174<-28 7>
Fore
220 13 m 0xf2
 207 8 185 -3 185 -19 c 0
 185 -55 245 -66 325 -66 c 4
 425 -66 483 -58 483 -28 c 0
 483 -16 471 0 446 5 c 0
 396 15 241 15 234 15 c 0
 229 15 226 15 220 13 c 0xf2
333 463 m 0
 287 463 245 437 245 395 c 0
 245 361 266 312 329 312 c 0
 386 312 413 348 413 383 c 0xec
 413 440 370 463 333 463 c 0
330 557 m 0
 442 557 499 522 524 502 c 0
 529 498 531 495 536 502 c 0
 559 531 617 557 636 557 c 0
 657 557 673 553 677 552 c 0
 681 551 687 546 687 540 c 0
 687 534 689 467 689 454 c 0
 689 441 688 425 678 425 c 0
 665 425 638 460 611 460 c 0
 593 460 590 458 586 454 c 0
 582 450 579 450 582 443 c 0
 587 430 593 408 593 385 c 0xec
 593 305 501 220 351 220 c 0
 312 220 291 220 283 223 c 0
 275 226 271 224 263 221 c 0
 255 218 233 213 232 198 c 0
 231 182 246 172 263 170 c 0
 343 161 489 168 554 144 c 0
 620 120 657 70 657 7 c 0
 657 -33 624 -85 579 -116 c 0
 526 -152 449 -163 330 -163 c 0
 263.904 -163 199.716 -161.808 149 -151 c 0
 88 -138 26 -102.385 26 -60 c 0xf2
 26 8 102 21 124 30 c 0
 132 33 133 39 126 42 c 0
 96 54 57 78 57 114 c 0
 57 190 137 221 171 241 c 0
 177 245 182 247 173 251 c 0
 146 263 66 297 66 385 c 0
 66 496 178 557 330 557 c 0
EndSplineSet
EndChar
StartChar: h
Encoding: 104 104 8
Width: 643
Flags: W
HStem: 415 132<335 432>
VStem: 51 198<20 358 23 481 733.008 738> 385 208<18 32>
Fore
51 23 m 4
 51 223 54 597 50 733 c 4
 49.7061 742.996 57 763 65 763 c 4
 73 763 214 762 223 762 c 4
 232 762 250 747 250 738 c 4
 250 687.526 250 476.208 250 477 c 4
 250 467 258.483 467.298 266 473 c 4
 295 495 348 547 432 547 c 4
 502.007 547 580 493 581 439 c 4
 581.076 434.879 589 393.917 589 375 c 4
 590.869 253.038 590 137 593 32 c 5
 593 11 589 0 559 -1 c 13
 502.45 -0.610352 472.36 1.69238 414 0 c 4
 403 0 385 4.96875 385 21 c 5
 389 100 389.242 343.171 391 356 c 4
 391 380 373 415 335 415 c 4
 291 415 271 392 254 366 c 4
 249.355 358.898 249 354.28 249 347 c 4
 250.337 255.827 253 109 253 20 c 4
 253 10.9443 253.036 -2.37598 241 -2 c 4
 191.567 -0.455078 108.996 0.882812 76 0.300781 c 4
 59 0 51 11.2246 51 23 c 4
EndSplineSet
EndChar
StartChar: i
Encoding: 105 105 9
Width: 307
Flags: W
HStem: 0 21G<172.5 179.5 176 238 233 245.5> 525 20G<222.5 231.5>
VStem: 52 202<18 526 611 640 611 753>
Fore
75 544 m 0
 121 544 218 545 227 545 c 0
 236 545 254 535 254 526 c 0
 256.078 435.11 257 139 257 28 c 4
 257 15 253 0 238 0 c 0
 228 0 183 0 176 0 c 0
 169 0 100 -1 89 -1 c 0
 78 -1 52 5 52 18 c 0
 52 31 53 504 53 514 c 0
 53 533 59.8555 544 75 544 c 0
68 769 m 16
 129 769 217 769 228 769 c 0
 244 769 253 763 253 751 c 0
 253 741 254 640 254 623 c 0
 254 610.958 249 599 242 597 c 0
 235 595 84 597 75 595 c 0
 66 593 50 599 50 611 c 0
 50 623.166 54 737 54 748 c 0
 54 760 58.1562 769 68 769 c 16
EndSplineSet
EndChar
StartChar: j
Encoding: 106 106 10
Width: 349
Flags: W
HStem: -177 153<35.1602 80.1602> 526 20G<104.16 114.16> 592 180<107 181>
Fore
35.1602 -24 m 4
 72.1602 -24 93.1602 0 93.1602 24 c 4
 93.1602 42 91.1602 482.986 91.1602 519 c 4
 91.1602 537 99.1602 546 109.16 546 c 4
 119.16 546 258.16 544 270.16 544 c 4
 282.16 544 293.16 537 293.16 521 c 4
 293.16 500.975 299.16 48.0225 299.16 26 c 4
 299.16 -155 121.16 -177 80.1602 -177 c 4
 61.1602 -177 43.1602 -176 35.1602 -173 c 4
 24.082 -168.846 20.7715 -167.948 20.1602 -160 c 4
 19.1602 -147 23.1602 -45 23.1602 -36 c 4
 23.1602 -27 29.1602 -24 35.1602 -24 c 4
113.16 772 m 4
 124.205 772 256.16 770 267.16 770 c 4
 280.198 770 293.16 760 294.16 747 c 4
 295.16 734 295.16 635 294.16 623 c 4
 293.16 611 290.16 596 278.16 595 c 4
 266.16 594 131.196 592 117.16 592 c 4
 102.16 592 92.1602 592 92.1602 600 c 4
 92.1602 617.029 91.1602 730 91.1602 748 c 4
 91.1602 764 102.16 772 113.16 772 c 4
EndSplineSet
EndChar
StartChar: k
Encoding: 107 107 11
Width: 671
Flags: W
HStem: 0 21G<74.5 95 85 243 238 248 435 441 438 630 622 636.5> 747 20G<216.5 230>
VStem: 50 203<15 753>
Fore
70 766 m 4
 84 765 211 767 222 767 c 4
 238 767 251 763 251 749 c 4
 251 740 253 371 253 357 c 4
 253 347.945 259 348 267 355 c 4
 275 362 432 532 435 537 c 4
 438 542 442 544 450 544 c 4
 458 544 585 544 597 544 c 4
 609 544 620 539 620 528 c 4
 620 519.938 617.708 514.472 611 510 c 4
 596 500 482 393 471 381 c 4
 466.467 376.055 465 366 469 359 c 4
 475.056 348.402 625 55 633 43 c 4
 636.552 37.6719 646 30.0557 646 21 c 4
 646 10 643 0 630 0 c 4
 614 0 444 0 438 0 c 4
 432 0 424 4 421 11 c 4
 416.017 22.626 338.229 201.542 332 214 c 4
 328 222 324 223 316 215 c 4
 308 207 266 165 260 159 c 4
 254 153 257 149 256 144 c 4
 255 139 257 46 258 32 c 4
 259 18 253 0 243 0 c 4
 233 0 105 0 85 0 c 4
 64 0 50 2 50 15 c 4
 50 30 51 728 51 743 c 4
 51 756 56 767 70 766 c 4
EndSplineSet
EndChar
StartChar: l
Encoding: 108 108 12
Width: 310
Flags: W
HStem: 0 21G<62.5 73 68 238 231 245>
VStem: 50 205<15 746>
Fore
76 767 m 0
 107 765 207 764 229 763 c 0
 239.04 762.544 255 760 255 745 c 0
 255 731 260 55 260 34 c 0
 260 17 252 0 238 0 c 0
 224 0 78 0 68 0 c 4
 57 0 50 4 50 15 c 0
 50 41 55 733 55 746 c 0
 55 756 63.9834 767.775 76 767 c 0
EndSplineSet
EndChar
StartChar: m
Encoding: 109 109 13
Width: 979
Flags: W
HStem: 0 21G<68.7354 76.7354 72.7354 240.735 235.235 248.735 405.235 416.235 410.735 577.735 570.735 584.735 734.235 755.235 744.735 909.735 902.735 916.735> 528 20G<389.735 468.235>
Fore
71.7354 543 m 4
 79.7354 543 218.735 542 227.735 542 c 4
 236.735 542 254.735 535 254.735 526 c 4
 254.735 517 251.735 489 251.735 480 c 4
 251.735 468 264.037 466.711 270.735 474 c 4
 304.735 511 354.735 548 424.735 548 c 4
 511.735 548 551.735 503 572.735 460 c 4
 576.898 451.475 583.112 450.64 590.735 459 c 4
 621.735 493 679.735 546 767.735 546 c 4
 860.735 546 918.735 482 924.735 408 c 4
 927.645 372.117 926.735 59 928.735 30 c 4
 930.456 5.03906 923.735 0 909.735 0 c 4
 895.735 0 765.735 0 744.735 0 c 4
 723.735 0 724.735 12 724.735 23 c 4
 724.735 48.0195 726.735 337 726.735 355 c 4
 726.735 388 711.735 414 670.735 414 c 4
 644.735 414 616.735 393 600.735 376 c 4
 595.084 369.995 590.735 366 590.735 360 c 4
 590.735 200 592.735 39.4014 592.735 28 c 4
 592.735 8 591.735 0 577.735 0 c 4
 563.735 0 421.735 0 410.735 0 c 4
 399.735 0 386.702 5.91895 387.735 24 c 4
 389.735 59 389.735 233 389.735 353 c 4
 389.735 390 369.735 415 337.735 415 c 4
 307.735 415 284.735 400 264.735 379 c 4
 259.858 373.88 258.735 371.123 258.735 367 c 4
 258.735 238 256.735 57 260.735 28 c 4
 262.785 13.1406 256.735 0 240.735 0 c 4
 229.735 0 80.7354 0 72.7354 0 c 4
 64.7354 0 52.7354 8 50.7354 20 c 4
 48.7354 32 51.7354 510 51.7354 522 c 4
 51.7354 534 63.7354 543 71.7354 543 c 4
EndSplineSet
EndChar
StartChar: n
Encoding: 110 110 14
Width: 644
Flags: W
HStem: 0 21G<77.4961 90.4961 83.9961 246.996 240.496 253.496 408.496 421.496 414.996 570.996 565.496 577.996> 529 20G<60.9961 70.5234>
Fore
65.9961 549 m 0
 75.0508 549 221.95 547 232.996 547 c 0
 247.996 547 253.996 541 253.996 531 c 0
 253.996 525 254.996 512 253.996 504 c 0
 252.996 496 251.996 490 251.996 482 c 0
 251.996 469 259.32 465.589 267.996 474 c 0
 300.996 506 362.996 552 427.996 552 c 0
 538.996 552 584.996 480 590.996 423 c 0
 594.241 392.17 593.996 43 593.996 23 c 0
 593.996 7.9668 584.996 0 570.996 0 c 0
 559.996 0 427.996 0 414.996 0 c 0
 401.996 0 387.996 0 387.996 11 c 4
 387.996 25.0361 393.996 342.967 393.996 358 c 0
 393.996 375 377.996 416 341.996 416 c 0
 307.996 416 279.996 394 262.996 376 c 0
 256.665 369.297 256.996 369 256.996 363 c 0
 256.996 357 256.996 36 256.996 21 c 0
 256.996 6.85742 259.996 0 246.996 0 c 0
 233.996 0 96.9961 0 83.9961 0 c 0
 70.9961 0 51.9961 0 51.9961 16 c 0
 51.9961 34.0273 49.9961 518 49.9961 530 c 0
 49.9961 544 55.9961 549 65.9961 549 c 0
EndSplineSet
EndChar
StartChar: o
Encoding: 111 111 15
Width: 670
Flags: W
HStem: -7 128<319.163 349> 436 126<330 349>
VStem: 44 213<264 298> 416 210<248 298>
Fore
337 436 m 4
 271 436 257 385 257 273 c 4
 257 167 279 121 332 121 c 4
 399 121 416 163 416 272 c 4
 416 405 393.08 436 337 436 c 4
336 562 m 4
 490.013 562 626 461 626 273 c 4
 626 90 477 -7 334 -7 c 4
 198 -7 44 86 44 276 c 4
 44 478 198 562 336 562 c 4
EndSplineSet
EndChar
StartChar: p
Encoding: 112 112 16
Width: 660
Flags: W
HStem: -4 117<325 404> 441 117<334 402>
VStem: 50 200<-153 166 -153 537> 407 209<259 293>
Fore
334 441 m 0
 296.879 441 280 425 265 411 c 0
 261.345 407.589 255 406.062 255 398 c 0
 255 389 249 177 249 165 c 0
 249 159.901 249.73 153.052 253 150 c 0
 268 136 299.92 113 325 113 c 0
 368 113 407 144 407 264 c 0
 407 389 381 441 334 441 c 0
65 550 m 0
 73.0625 550 210 551 222 551 c 0
 234 551 250 545 250 535 c 0
 250 525 249 518 249 511 c 0
 249 504 252.641 489.269 263 499 c 0
 296 530 348.99 558 402 558 c 0
 512 558 616 481 616 281 c 0
 616 91 524 -4 404 -4 c 4
 342 -4 284 31 258 54 c 0
 249.266 61.7266 249 58 249 50 c 0
 249 42 250 -128 250 -141 c 0
 250 -155 246 -169 232 -169 c 0
 218 -169 91 -174 77 -172 c 0
 63 -170 50 -167.036 50 -153 c 0
 50 -137 50 522.929 50 530 c 0
 50 544 55 550 65 550 c 0
EndSplineSet
EndChar
StartChar: q
Encoding: 113 113 17
Width: 666
Flags: W
HStem: -7 125<260 331> 447 110<264 341>
VStem: 44 213<247 297> 410 206<-157 50 160 536>
Fore
341 447 m 4
 295.956 447 257 418 257 270 c 4
 257 142 302 118 331 118 c 4
 366.057 118 386 132 400 143 c 4
 405.275 147.144 411 151 411 162 c 4
 411 181 412 347.974 412 367 c 4
 412 408 384 447 341 447 c 4
264 557 m 4
 371.019 557 412 512 444 484 c 4
 459.052 470.83 457 471 462 484 c 4
 465.067 491.975 472.992 521.305 477 536 c 4
 480 547 485 552 493 552 c 4
 507 552 582.82 556 594 556 c 4
 608 556 616 549.038 616 536 c 4
 616 524 616 -116 616 -134 c 4
 616 -152 611 -167 596 -167 c 4
 586.944 -167 446 -168 433 -168 c 4
 420 -168 410 -169 410 -157 c 4
 410 -145 409 33 409 43 c 4
 409 53 404.328 53.5518 399 50 c 4
 375 34 319 -7 260 -7 c 4
 153 -7 44 76 44 269 c 4
 44 463.023 162 557 264 557 c 4
EndSplineSet
EndChar
StartChar: r
Encoding: 114 114 18
Width: 508
Flags: W
HStem: 0 21G<78 92.0249 87 242 235.5 248.5> 379 178<351 432>
VStem: 51 195<15 481>
Fore
78 551 m 0
 95 552 214 549 229 549 c 0
 241.042 549 248 545 249 537 c 0
 250 529 246 479 246 468 c 0
 246 454 258.317 453.779 268 468 c 0
 300 515 386.989 557 432 557 c 0
 470 557 470 546 470 539 c 0
 470 529 472 394 472 386 c 0
 472 378 467 361 458 361 c 0
 450.929 361 446 361 443 363 c 1
 420.23 373.884 384 379 351 379 c 4
 316 379 286 363 268 346 c 0
 264.916 343.087 256 335 256 327 c 0
 256 319 258 41 258 30 c 0
 258 12 255 0 242 0 c 0
 229 0 97.0498 0 87 0 c 0
 69 0 51 5 51 15 c 0
 51 31.2783 50 506 50 521 c 0
 50 539 61 550 78 551 c 0
EndSplineSet
EndChar
StartChar: s
Encoding: 115 115 19
Width: 587
Flags: W
HStem: -5 124<264 300> 444 124<275 304>
VStem: 31 181<375 408> 378 183<156 178>
Fore
277 568 m 4
 455 568 517 476 522 465 c 4
 527 454 527 447 520 443 c 4
 513 439 436 399 427 393 c 4
 418 387 408.071 386.062 402 393 c 4
 388 409 344 444 302 444 c 4
 254 444 212 436 212 408 c 4
 212 386 259 380 300 376 c 4
 351.993 370.928 426 352 473 325 c 4
 490.102 315.175 561 278 561 178 c 4
 561 81 454 -5 296 -5 c 4
 141 -5 72 35 31 98 c 4
 24.1655 108.502 24 119 30 125 c 4
 40.0499 135.05 124.636 179.464 131 183 c 4
 140 188 145.895 188.379 152 178 c 4
 172 144 225 119 271 119 c 4
 347 119 378 137 378 156 c 4
 378 186 362.169 189.297 344 191 c 4
 312 194 242 197 187 213 c 4
 111.388 234.996 31 272 31 375 c 4
 31 458 106 568 277 568 c 4
EndSplineSet
EndChar
StartChar: t
Encoding: 116 116 20
Width: 487
Flags: W
HStem: 417 131<337 446>
VStem: 120 210<123 238.264 123 409>
Fore
172 737 m 4
 249 734 283 739 299 741 c 4
 307.931 742.116 328 725 328 704 c 4
 328 683 322 565 322 556 c 4
 322 549 330 548 339 548 c 4
 348 548 426 548 438 548 c 4
 450 548 461 543 461 531 c 4
 461 519 461 447 461 435 c 4
 461 423 455 417 446 417 c 4
 437 417 357.487 417 348 417 c 4
 334 417 330 414 330 402 c 4
 330 380 323 235 323 195 c 4
 323 161.985 337 147 353 141 c 4
 386.183 128.556 423.049 132.254 444 134 c 4
 456 135 459 123 459 117 c 4
 459 111 462 28 462 22 c 4
 462 11.9501 454.994 4.80957 444 0 c 4
 428 -7 391 -8 342 -8 c 4
 190 -8 120 42 120 123 c 4
 120 183 120 385 120 396 c 4
 120 408 119.931 415.116 111 414 c 4
 95 412 52.9795 411.498 47 411 c 4
 35 410 25 416.631 25 429 c 4
 25 445 24 520 24 531 c 4
 24 542 28 546 36 546 c 4
 48.3691 546 94.6309 547 107 547 c 4
 124 547 131 554 132 570 c 4
 132.562 578.982 143 705 144 717 c 4
 144.996 728.959 156.012 737.623 172 737 c 4
EndSplineSet
EndChar
StartChar: u
Encoding: 117 117 21
Width: 647
Flags: W
HStem: 0 21G<405.72 413.72 409.72 585.72 581.22 590.22> 526 20G<230.72 242.72>
Fore
68.7197 547 m 4
 78.7197 546 224.72 546 236.72 546 c 0
 248.72 546 258.72 542 258.72 532 c 0
 258.72 522 256.72 212 256.72 185 c 0
 256.72 158 281.72 130 307.72 130 c 0
 333.72 130 360.79 156.23 394.72 173 c 25
 394.72 173 393.72 519 392.72 530 c 0
 391.72 541 395.72 543 402.72 544 c 0
 409.72 545 576.72 545 583.72 545 c 0
 590.72 545 595.72 546 596.72 535 c 0
 597.72 524 595.72 36 595.72 25 c 0
 595.72 14 594.72 0 585.72 0 c 0
 576.72 0 417.72 0 409.72 0 c 0
 401.72 0 394.72 7 394.72 15 c 0
 394.72 23 396.72 57 396.72 64 c 0
 396.72 71 392.72 75 384.72 72 c 0
 376.72 69 312.72 -9 215.72 -9 c 0
 118.72 -9 56.7197 45 51.7197 142 c 0
 46.7197 239 52.7197 511 50.7197 525 c 0
 48.7197 539 58.7197 548 68.7197 547 c 4
EndSplineSet
EndChar
StartChar: v
Encoding: 118 118 22
Width: 611
Flags: W
HStem: 0 21G<246.831 369.831> 532 20G<21.8311 30.8623>
Fore
26.8311 552 m 6
 34.8936 552 203.831 549 211.831 550 c 2
 219.831 551 232.831 542 234.831 536 c 2
 236.831 530 321.831 293 325.831 286 c 2
 330.156 274.118 339.879 272.247 343.831 283 c 2
 348.831 296 431.831 526 436.831 536 c 2
 441.831 546 445.831 551 456.831 552 c 2
 467.831 553 572.446 550 577.831 550 c 2
 589.831 550 600.783 536.801 593.831 521 c 2
 582.831 496 410.831 84 391.831 23 c 2
 389.509 15.543 378.831 0 369.831 0 c 2
 246.831 0 l 2
 235.831 0 223.831 7 220.831 22 c 2
 215.063 50.8398 23.8311 499 15.8311 524 c 2
 13.2275 532.138 16.8311 552 26.8311 552 c 6
EndSplineSet
EndChar
StartChar: w
Encoding: 119 119 23
Width: 860
Flags: W
HStem: 0 21G<220.447 338.447 541.447 653.447> 528 20G<192.447 202.447>
Fore
35.4473 546 m 2
 72.4473 545 187.447 548 197.447 548 c 2
 207.447 548 223.447 538 223.447 532 c 2
 223.447 526 292.447 307 294.447 301 c 2
 296.447 295 300.447 288 306.447 298 c 2
 312.447 308 379.447 524 381.447 530 c 2
 383.447 536 388.447 542 398.447 542 c 2
 408.447 542 510.447 545 518.447 545 c 2
 529.461 545.184 539.447 540 541.447 534 c 2
 543.447 528 611.447 299 611.447 295 c 2
 614.459 285.004 624.672 286.93 628.447 299 c 2
 632.447 305 699.447 516 699.447 526 c 2
 699.447 536 707.447 542 723.447 542 c 6
 738.48 542 813.447 544 823.447 544 c 2
 841.46 544.36 848.396 536.326 843.447 522 c 2
 843.447 508 674.447 39 672.447 27 c 2
 670.447 15 653.447 0 653.447 0 c 26
 541.447 0 l 10
 541.447 0 515.335 -0.649414 511.447 12 c 2
 503.447 32 444.447 233 440.447 243 c 2
 436.447 253 430.238 253.745 426.447 242 c 2
 420.447 228 358.447 33 356.447 27 c 2
 351.553 11.9658 350.447 0 338.447 0 c 2
 220.447 0 l 26
 220.447 0 197.447 -6 193.447 12 c 2
 189.447 30 17.4473 518 15.4473 524 c 2
 12.75 531.758 23.4619 545.852 35.4473 546 c 2
EndSplineSet
EndChar
StartChar: x
Encoding: 120 120 24
Width: 680
Flags: W
HStem: 1 21G<449.04 464.32 456.32 652.32 647.82 656.82> 528 20G<123.82 134.82 129.32 248.32 242.82 253.82>
Fore
52.3203 553 m 4
 59.3906 553 118.32 548 129.32 548 c 4
 140.32 548 237.32 548 248.32 548 c 4
 259.32 548 266.712 546.704 271.32 538 c 4
 280.32 521 338.32 436 342.32 430 c 4
 348.32 421 351.04 423.72 358.32 431 c 4
 365.32 438 426.32 526 430.32 532 c 4
 434.32 538 439.101 547 448.32 547 c 4
 462.32 547 574.32 549 586.32 549 c 4
 595.375 549 611.32 539 612.32 536 c 4
 613.32 533 606.32 520 601.32 515 c 4
 596.32 510 445.32 324 440.32 317 c 4
 435.32 310 434.988 305.498 439.32 299 c 4
 447.32 287 646.32 30 652.32 24 c 4
 658.32 18 661.32 1 652.32 1 c 4
 643.32 1 472.32 1 456.32 1 c 4
 441.76 1 430.32 -1 422.32 11 c 4
 414.32 23 332.32 143 325.32 155 c 4
 318.32 167 315.32 163 309.32 155 c 4
 303.32 147 228.32 31 220.32 16 c 4
 216.327 8.5127 211.32 0 200.32 0 c 4
 189.32 0 76.3203 0 64.3203 0 c 4
 44.3203 0 35.3203 9 35.3203 18 c 4
 35.3203 24 46.3203 38 49.3203 41 c 4
 52.3203 44 223.32 258 228.32 267 c 4
 233.32 276 231.32 283 227.32 287 c 4
 223.32 291 56.3203 505 44.3203 520 c 4
 42.3447 522.47 36.3203 534 36.3203 540 c 4
 36.3203 550 41.3203 553 52.3203 553 c 4
EndSplineSet
EndChar
StartChar: y
Encoding: 121 121 25
Width: 616
Flags: W
HStem: -174 144<77 171.146> 527 20G<455.983 465.146>
Fore
41.1455 554 m 0
 69.1455 552 169.146 548 217.146 549 c 0
 227.341 549.213 238.847 541.663 241.146 534 c 0
 247.146 514 319.709 297.802 327.146 282 c 0
 335.146 265 345.146 266 351.146 281 c 0
 356.397 294.131 437.146 526 441.146 536 c 0
 445.146 546 452.821 547 459.146 547 c 0
 471.146 547 570.146 548 578.146 548 c 0
 593.146 548 603.146 543 603.146 536 c 0
 603.146 532 601.221 516.399 594.146 505 c 0
 576.146 476 368.146 -30 362.146 -43 c 0
 338.333 -94.5938 303.146 -145 201.146 -168 c 0
 169.687 -175.094 94.2334 -174 77.1455 -174 c 0
 67.1455 -174 53.1455 -168 53.1455 -158 c 4
 53.1455 -133 53.1455 -58 53.1455 -44 c 0
 53.1455 -33 65.1455 -27 77.1455 -28 c 0
 83.4482 -28.5254 159.146 -30 171.146 -30 c 0
 183.146 -30 212.146 -19 224.146 4 c 8
 229.248 13.7803 223.743 20.5518 220.146 32 c 0
 209.146 67 32.1455 497 21.1455 520 c 0
 18.0342 526.506 20.1982 555.496 41.1455 554 c 0
EndSplineSet
EndChar
StartChar: z
Encoding: 122 122 26
Width: 587
Flags: W
HStem: 0 133<498 532> 526 20G<74 84.5 80 532 525 537.025>
Fore
80 546 m 0
 89 546 518 546 532 546 c 0
 542.05 546 549 547 550 537 c 0
 551 527 550 474 551 471 c 0
 552 468 552 453 546 448 c 2
 540 443 316 156 308 144 c 2
 301.676 134.513 294 128 305 127 c 2
 316 126 506.964 133 521 133 c 2
 539 133 552 127 552 115 c 2
 552 115 552 30 552 23 c 0
 552 16 544 0 528 0 c 0
 513 0 73 0 62 0 c 0
 51 0 36 3 36 14 c 0
 36 25 35 76 35 85 c 0
 35 94 41 103 46 109 c 2
 51 115 273 400 280 409 c 2
 287 418 289 426 280 425 c 0
 271 424 96.041 412.502 87 412 c 0
 69 411 56 416 56 434 c 0
 56 446 58 517 58 526 c 0
 58 540 68 546 80 546 c 0
EndSplineSet
EndChar
